<svg width="13" height="13" viewBox="0 0 13 13" fill="none" xmlns="http://www.w3.org/2000/svg">
<path d="M11.9108 1.18462C11.9063 1.16303 11.8958 1.14316 11.8805 1.12733C11.8651 1.1115 11.8456 1.10038 11.8241 1.09527C10.3942 0.745659 7.09025 1.99151 5.30021 3.78081C4.98094 4.0975 4.68988 4.44141 4.43034 4.80864C3.87833 4.75982 3.32633 4.80059 2.85587 5.00567C1.52848 5.58989 1.14201 7.11431 1.03434 7.77007C1.02823 7.80596 1.03054 7.84278 1.04107 7.87763C1.0516 7.91248 1.07008 7.94442 1.09504 7.97092C1.12001 7.99742 1.15078 8.01777 1.18494 8.03037C1.2191 8.04296 1.25572 8.04746 1.29191 8.04351L3.4235 7.8084C3.42502 7.96911 3.43472 8.12963 3.45255 8.28936C3.46328 8.40027 3.51252 8.50393 3.59171 8.58232L4.41715 9.40581C4.49562 9.48491 4.59924 9.53412 4.71012 9.54497C4.86895 9.56274 5.02858 9.57243 5.18839 9.57402L4.9545 11.7029C4.9506 11.7391 4.95514 11.7757 4.96775 11.8098C4.98036 11.844 5.00071 11.8747 5.0272 11.8997C5.05369 11.9246 5.0856 11.9431 5.12043 11.9537C5.15526 11.9642 5.19206 11.9666 5.22794 11.9605C5.88248 11.8555 7.40958 11.469 7.99039 10.1417C8.19547 9.67119 8.23746 9.12187 8.1901 8.57256C8.55822 8.313 8.90303 8.02186 9.22062 7.70244C11.0163 5.91582 12.255 2.6856 11.9108 1.18462ZM7.42911 5.5711C7.26515 5.40724 7.15346 5.19843 7.10818 4.97109C7.0629 4.74375 7.08606 4.50808 7.17474 4.2939C7.26341 4.07973 7.41361 3.89666 7.60634 3.76786C7.79907 3.63906 8.02567 3.57031 8.25748 3.57031C8.48929 3.57031 8.71589 3.63906 8.90862 3.76786C9.10135 3.89666 9.25155 4.07973 9.34023 4.2939C9.4289 4.50808 9.45206 4.74375 9.40678 4.97109C9.3615 5.19843 9.24982 5.40724 9.08585 5.5711C8.97712 5.67998 8.848 5.76636 8.70586 5.82529C8.56372 5.88423 8.41136 5.91456 8.25748 5.91456C8.10361 5.91456 7.95124 5.88423 7.8091 5.82529C7.66697 5.76636 7.53784 5.67998 7.42911 5.5711Z" fill="white"/>
<path d="M4.36108 10.0023C4.22729 10.1363 4.01269 10.1886 3.75439 10.2333C3.17407 10.3321 2.66162 9.83067 2.76587 9.244C2.80566 9.02159 2.92334 8.70982 2.99658 8.63658C3.01259 8.62088 3.02325 8.60054 3.02704 8.57844C3.03082 8.55634 3.02755 8.53361 3.01769 8.51347C3.00782 8.49333 2.99186 8.47682 2.97208 8.46627C2.95229 8.45572 2.92969 8.45167 2.90747 8.4547C2.58295 8.4944 2.28104 8.64154 2.0498 8.87267C1.47583 9.44713 1.42163 11.5787 1.42163 11.5787C1.42163 11.5787 3.55444 11.5245 4.12842 10.9501C4.36027 10.719 4.50758 10.4166 4.54663 10.0917C4.55566 9.98961 4.4314 9.92882 4.36108 10.0023Z" fill="white"/>
</svg>
