<svg width="13" height="13" viewBox="0 0 13 13" fill="none" xmlns="http://www.w3.org/2000/svg">
<path d="M4.54663 11.1875C4.9781 11.1875 5.32788 10.8377 5.32788 10.4062C5.32788 9.97473 4.9781 9.62495 4.54663 9.62495C4.11516 9.62495 3.76538 9.97473 3.76538 10.4062C3.76538 10.8377 4.11516 11.1875 4.54663 11.1875Z" fill="white"/>
<path d="M10.0154 11.1875C10.4469 11.1875 10.7966 10.8377 10.7966 10.4062C10.7966 9.97473 10.4469 9.62495 10.0154 9.62495C9.58391 9.62495 9.23413 9.97473 9.23413 10.4062C9.23413 10.8377 9.58391 11.1875 10.0154 11.1875Z" fill="white"/>
<path d="M11.4021 3.19887C11.3472 3.13174 11.2781 3.07768 11.1997 3.0406C11.1213 3.00352 11.0357 2.98436 10.949 2.98451H3.51855L3.3689 2.13539C3.35294 2.04494 3.30562 1.96301 3.23525 1.90399C3.16489 1.84496 3.07597 1.81262 2.98413 1.81264H1.42163C1.31803 1.81264 1.21867 1.85379 1.14542 1.92705C1.07216 2.00031 1.03101 2.09966 1.03101 2.20326C1.03101 2.30686 1.07216 2.40622 1.14542 2.47948C1.21867 2.55273 1.31803 2.59389 1.42163 2.59389H2.65649L3.77124 8.91176C3.7872 9.0022 3.83452 9.08414 3.90488 9.14316C3.97525 9.20219 4.06416 9.23453 4.156 9.23451H10.406C10.5096 9.23451 10.609 9.19336 10.6822 9.1201C10.7555 9.04684 10.7966 8.94749 10.7966 8.84389C10.7966 8.74028 10.7555 8.64093 10.6822 8.56767C10.609 8.49441 10.5096 8.45326 10.406 8.45326H4.48364L4.34595 7.67201H10.2458C10.3813 7.67184 10.5126 7.62487 10.6174 7.53905C10.7222 7.45323 10.7941 7.33383 10.821 7.20106L11.5242 3.68544C11.5411 3.60036 11.5389 3.51257 11.5178 3.42843C11.4967 3.34428 11.4572 3.26588 11.4021 3.19887Z" fill="white"/>
</svg>
