<svg width="13" height="13" viewBox="0 0 13 13" fill="none" xmlns="http://www.w3.org/2000/svg">
<path d="M2.5813 2.78788H10.3938C10.4851 2.78784 10.5762 2.79363 10.6667 2.80522C10.6361 2.58983 10.5621 2.38289 10.4493 2.19686C10.3364 2.01084 10.1871 1.8496 10.0103 1.72284C9.83345 1.59609 9.63279 1.50646 9.42039 1.45936C9.20799 1.41226 8.98824 1.40866 8.77441 1.44877L2.34936 2.5457H2.34204C1.93874 2.62282 1.58009 2.851 1.33936 3.18363C1.70205 2.92566 2.13622 2.78731 2.5813 2.78788Z" fill="white"/>
<path d="M10.3938 3.37491H2.5813C2.16704 3.37536 1.76987 3.54013 1.47694 3.83305C1.18402 4.12598 1.01925 4.52315 1.0188 4.93741V9.62491C1.01925 10.0392 1.18402 10.4363 1.47694 10.7293C1.76987 11.0222 2.16704 11.187 2.5813 11.1874H10.3938C10.8081 11.187 11.2052 11.0222 11.4982 10.7293C11.7911 10.4363 11.9558 10.0392 11.9563 9.62491V4.93741C11.9558 4.52315 11.7911 4.12598 11.4982 3.83305C11.2052 3.54013 10.8081 3.37536 10.3938 3.37491ZM9.23413 8.06241C9.07961 8.06241 8.92857 8.01659 8.80009 7.93074C8.67161 7.8449 8.57148 7.72288 8.51235 7.58013C8.45322 7.43737 8.43775 7.28029 8.46789 7.12874C8.49804 6.9772 8.57244 6.83799 8.6817 6.72873C8.79096 6.61947 8.93017 6.54506 9.08171 6.51492C9.23326 6.48477 9.39035 6.50025 9.5331 6.55938C9.67586 6.61851 9.79787 6.71864 9.88371 6.84712C9.96956 6.97559 10.0154 7.12664 10.0154 7.28116C10.0154 7.48836 9.93307 7.68707 9.78656 7.83358C9.64004 7.9801 9.44133 8.06241 9.23413 8.06241Z" fill="white"/>
<path d="M1.03101 6.58411V4.15491C1.03101 3.62585 1.32397 2.73889 2.34082 2.54675C3.20386 2.38489 4.05835 2.38489 4.05835 2.38489C4.05835 2.38489 4.61987 2.77551 4.15601 2.77551C3.69214 2.77551 3.70434 3.37366 4.15601 3.37366C4.60767 3.37366 4.15601 3.94739 4.15601 3.94739L2.33716 6.01038L1.03101 6.58411Z" fill="white"/>
</svg>
