<svg width="12" height="12" viewBox="0 0 12 12" fill="none" xmlns="http://www.w3.org/2000/svg">
<g clip-path="url(#clip0_92_22)">
<path d="M9.97272 3.67541C9.98569 3.66784 9.99645 3.65701 10.0039 3.64398C10.0114 3.63096 10.0153 3.6162 10.0153 3.60118C10.0153 3.58616 10.0114 3.57141 10.0039 3.55838C9.99645 3.54536 9.98569 3.53452 9.97272 3.52695L6.6912 1.62043C6.48123 1.49873 6.24284 1.43463 6.00015 1.43463C5.75746 1.43463 5.51907 1.49873 5.30911 1.62043L2.02823 3.52695C2.01525 3.53452 2.00449 3.54536 1.99701 3.55838C1.98953 3.57141 1.9856 3.58616 1.9856 3.60118C1.9856 3.6162 1.98953 3.63096 1.99701 3.64398C2.00449 3.65701 2.01525 3.66784 2.02823 3.67541L5.95729 5.9867C5.97051 5.99448 5.98556 5.99859 6.0009 5.99859C6.01624 5.99859 6.0313 5.99448 6.04452 5.9867L9.97272 3.67541Z" fill="#2D3748"/>
<path d="M1.6604 4.25974C1.6473 4.25218 1.63243 4.24821 1.61729 4.24823C1.60216 4.24825 1.5873 4.25227 1.57422 4.25988C1.56114 4.26749 1.5503 4.27842 1.5428 4.29156C1.5353 4.3047 1.5314 4.31959 1.5315 4.33472V8.07064C1.53182 8.25068 1.57927 8.42749 1.66913 8.58349C1.75898 8.7395 1.88812 8.86926 2.04368 8.95988L5.52759 11.0488C5.54065 11.0563 5.55546 11.0603 5.57054 11.0603C5.58561 11.0603 5.60043 11.0564 5.61349 11.0488C5.62655 11.0413 5.6374 11.0305 5.64495 11.0174C5.6525 11.0044 5.65648 10.9895 5.6565 10.9745V6.64C5.65648 6.62493 5.6525 6.61013 5.64496 6.59708C5.63742 6.58403 5.62658 6.5732 5.61353 6.56566L1.6604 4.25974Z" fill="#2D3748"/>
<path d="M6.34399 6.65509V10.9734C6.34401 10.9885 6.34799 11.0033 6.35554 11.0164C6.36309 11.0294 6.37394 11.0403 6.387 11.0478C6.40006 11.0553 6.41488 11.0593 6.42995 11.0593C6.44503 11.0593 6.45984 11.0553 6.4729 11.0478L9.95659 8.95886C10.112 8.86836 10.2411 8.73878 10.331 8.58298C10.4209 8.42717 10.4685 8.25057 10.469 8.0707V4.33478C10.4689 4.31972 10.4649 4.30494 10.4574 4.29192C10.4498 4.2789 10.4389 4.26809 10.4259 4.26058C10.4128 4.25308 10.398 4.24913 10.383 4.24915C10.3679 4.24916 10.3531 4.25313 10.3401 4.26066L6.38696 6.58097C6.37394 6.58849 6.36312 6.59929 6.35558 6.61229C6.34804 6.6253 6.34405 6.64006 6.34399 6.65509Z" fill="#2D3748"/>
</g>
<defs>
<clipPath id="clip0_92_22">
<rect width="11" height="11" fill="white" transform="translate(0.500244 0.74762)"/>
</clipPath>
</defs>
</svg>
