<svg width="12" height="12" viewBox="0 0 12 12" fill="none" xmlns="http://www.w3.org/2000/svg">
<path d="M5.18647 4.33953C5.18647 4.61883 5.18647 4.88953 5.27456 5.14304C4.34858 6.23015 1.90366 9.10261 1.67593 9.32175C1.63067 9.36236 1.59446 9.41205 1.56966 9.46757C1.54486 9.52309 1.53202 9.58321 1.53198 9.64402C1.53198 9.82664 1.6437 10.0028 1.73823 10.1016C1.88003 10.2499 2.48589 10.8106 2.59761 10.7032C2.92847 10.3809 2.99507 10.295 3.13042 10.1618C3.33452 9.96199 3.10894 9.55379 3.17983 9.38836C3.25073 9.22293 3.32593 9.1907 3.44839 9.16492C3.57085 9.13914 3.78784 9.22722 3.95757 9.22937C4.13589 9.23152 4.23257 9.15632 4.36577 9.03172C4.47319 8.93289 4.55054 8.8405 4.55269 8.69656C4.55698 8.5032 4.27769 8.24754 4.48608 8.04343C4.69448 7.83933 4.99526 8.17664 5.21655 8.15086C5.43784 8.12507 5.7064 7.81785 5.73433 7.68679C5.76226 7.55574 5.48296 7.21843 5.52593 7.02722C5.54097 6.96277 5.67202 6.81238 5.77085 6.79089C5.86968 6.76941 6.30796 6.93914 6.40679 6.91765C6.5271 6.89187 6.66675 6.76511 6.78061 6.69422C7.11362 6.83816 7.41655 6.89617 7.80542 6.89617C9.2771 6.89617 10.4695 5.7489 10.4695 4.33523C10.4695 2.92156 9.2771 1.77924 7.80542 1.77924C6.33374 1.77924 5.18647 2.92586 5.18647 4.33953ZM9.09448 3.84174C9.09448 3.97771 9.05416 4.11063 8.97862 4.22369C8.90307 4.33675 8.7957 4.42487 8.67008 4.4769C8.54445 4.52894 8.40622 4.54255 8.27286 4.51603C8.1395 4.4895 8.01699 4.42402 7.92085 4.32787C7.8247 4.23172 7.75922 4.10922 7.73269 3.97586C7.70616 3.8425 7.71978 3.70426 7.77181 3.57864C7.82385 3.45302 7.91197 3.34564 8.02503 3.2701C8.13809 3.19456 8.27101 3.15424 8.40698 3.15424C8.58932 3.15424 8.76419 3.22667 8.89312 3.3556C9.02205 3.48453 9.09448 3.6594 9.09448 3.84174Z" fill="#2D3748"/>
</svg>
