<svg width="15" height="16" viewBox="0 0 15 16" fill="none" xmlns="http://www.w3.org/2000/svg">
<path d="M7.50027 1.90601C4.14022 1.90601 1.40652 4.6397 1.40652 7.99975C1.40652 11.3598 4.14022 14.0935 7.50027 14.0935C10.8603 14.0935 13.594 11.3598 13.594 7.99975C13.594 4.6397 10.8603 1.90601 7.50027 1.90601ZM10.6717 5.95747L6.73416 10.645C6.69097 10.6964 6.63722 10.738 6.57657 10.7668C6.51591 10.7957 6.44976 10.8112 6.3826 10.8123H6.37469C6.30899 10.8122 6.24402 10.7984 6.18401 10.7716C6.124 10.7449 6.07029 10.7058 6.02635 10.657L4.33885 8.78198C4.29599 8.73653 4.26265 8.68296 4.24079 8.62444C4.21893 8.56592 4.20899 8.50361 4.21156 8.44119C4.21412 8.37877 4.22913 8.3175 4.25571 8.26096C4.2823 8.20443 4.31991 8.15377 4.36635 8.11198C4.41279 8.07019 4.46711 8.03811 4.52613 8.01761C4.58514 7.99712 4.64766 7.98862 4.71 7.99263C4.77234 7.99664 4.83326 8.01308 4.88916 8.04096C4.94506 8.06885 4.99483 8.10763 5.03553 8.15503L6.36238 9.62925L9.95389 5.35454C10.0344 5.2614 10.1484 5.2037 10.2712 5.19392C10.3939 5.18414 10.5156 5.22306 10.6099 5.30226C10.7042 5.38147 10.7635 5.49461 10.7751 5.61721C10.7867 5.73981 10.7495 5.86204 10.6717 5.95747Z" fill="#68D391"/>
</svg>
