<svg width="13" height="13" viewBox="0 0 13 13" fill="none" xmlns="http://www.w3.org/2000/svg">
<path d="M10.8144 8.4989C10.7755 8.45202 10.7373 8.40515 10.6998 8.35992C10.1842 7.73624 9.87225 7.35984 9.87225 5.59429C9.87225 4.68023 9.65358 3.93023 9.22257 3.36773C8.90475 2.95218 8.47514 2.63695 7.90889 2.40398C7.90161 2.39993 7.8951 2.39461 7.88968 2.38828C7.686 1.70625 7.12866 1.24945 6.50007 1.24945C5.87147 1.24945 5.31436 1.70625 5.11069 2.38757C5.10526 2.39367 5.09884 2.39882 5.09171 2.40281C3.7703 2.94679 3.12812 3.99046 3.12812 5.59359C3.12812 7.35984 2.81663 7.73624 2.30054 8.35921C2.26304 8.40445 2.22484 8.45038 2.18593 8.4982C2.08543 8.6194 2.02175 8.76685 2.00244 8.92311C1.98313 9.07937 2.00898 9.23789 2.07694 9.37991C2.22155 9.6846 2.52976 9.87374 2.88155 9.87374H10.1212C10.4713 9.87374 10.7774 9.68484 10.9225 9.38155C10.9907 9.2395 11.0168 9.08085 10.9977 8.92441C10.9785 8.76797 10.9149 8.6203 10.8144 8.4989Z" fill="#718096"/>
<path d="M6.49996 11.7496C6.83864 11.7494 7.17093 11.6574 7.46159 11.4836C7.75225 11.3097 7.99044 11.0605 8.15089 10.7622C8.15845 10.7479 8.16219 10.7319 8.16173 10.7158C8.16128 10.6996 8.15665 10.6838 8.1483 10.67C8.13995 10.6561 8.12816 10.6447 8.11408 10.6367C8.09999 10.6288 8.08409 10.6246 8.06792 10.6246H4.93246C4.91627 10.6246 4.90034 10.6287 4.88622 10.6366C4.87211 10.6446 4.86029 10.656 4.85191 10.6699C4.84353 10.6837 4.83888 10.6995 4.83842 10.7157C4.83795 10.7319 4.84169 10.7479 4.84926 10.7622C5.00969 11.0604 5.24784 11.3097 5.53846 11.4835C5.82907 11.6574 6.16132 11.7493 6.49996 11.7496Z" fill="#718096"/>
</svg>
