<svg width="54" height="25" viewBox="0 0 54 25" fill="none" xmlns="http://www.w3.org/2000/svg">
<g clip-path="url(#clip0_5_75)">
<g clip-path="url(#clip1_5_75)">
<path d="M11.8025 13.853V17.7202H15.2107C15.8878 17.7202 16.3956 17.642 16.7341 17.4858C17.3331 17.2123 17.6326 16.672 17.6326 15.8647C17.6326 14.9923 17.3429 14.4064 16.7634 14.1069C16.4379 13.9376 15.9496 13.853 15.2986 13.853H11.8025ZM15.9236 11.353C16.9327 11.3725 17.7074 11.4962 18.2478 11.7241C18.7947 11.9519 19.2569 12.2872 19.6345 12.7299C19.947 13.0945 20.1944 13.4981 20.3767 13.9409C20.559 14.3836 20.6501 14.8881 20.6501 15.4545C20.6501 16.1381 20.4776 16.812 20.1326 17.476C19.7875 18.1336 19.2179 18.5991 18.4236 18.8725C19.0876 19.1394 19.5564 19.5203 19.8298 20.0151C20.1098 20.5034 20.2498 21.2521 20.2498 22.2612V23.228C20.2498 23.8855 20.2758 24.3315 20.3279 24.5659C20.406 24.937 20.5883 25.2104 20.8748 25.3862V25.7475H17.5642C17.4731 25.4285 17.408 25.1713 17.3689 24.976C17.2908 24.5724 17.2485 24.159 17.2419 23.7358L17.2224 22.3979C17.2094 21.4799 17.0401 20.8679 16.7146 20.562C16.3956 20.256 15.7934 20.103 14.908 20.103H11.8025V25.7475H8.86304V11.353H15.9236ZM27.2224 17.1147C26.5779 17.1147 26.0766 17.3165 25.7185 17.7202C25.3669 18.1238 25.1456 18.6707 25.0544 19.3608H29.3806C29.335 18.6251 29.1104 18.0685 28.7068 17.6909C28.3097 17.3067 27.8149 17.1147 27.2224 17.1147ZM27.2224 14.8198C28.1078 14.8198 28.9054 14.9858 29.615 15.3178C30.3246 15.6498 30.9106 16.1739 31.3728 16.8901C31.7895 17.5216 32.0597 18.254 32.1833 19.0873C32.255 19.5756 32.2843 20.2787 32.2712 21.1967H24.9861C25.0251 22.2644 25.3604 23.0131 25.9919 23.4428C26.3761 23.7097 26.8383 23.8432 27.3787 23.8432C27.9516 23.8432 28.4171 23.6804 28.7751 23.3549C28.9705 23.1791 29.143 22.935 29.2927 22.6225H32.1345C32.0629 23.254 31.7341 23.8953 31.1482 24.5463C30.2367 25.5815 28.9607 26.0991 27.3201 26.0991C25.9659 26.0991 24.7712 25.6629 23.7361 24.7905C22.7009 23.9181 22.1833 22.4988 22.1833 20.5327C22.1833 18.6902 22.6488 17.2774 23.5798 16.2944C24.5173 15.3113 25.7315 14.8198 27.2224 14.8198ZM40.0251 20.5717C39.8494 20.6824 39.6703 20.7735 39.488 20.8452C39.3123 20.9103 39.0681 20.9721 38.7556 21.0307L38.1306 21.1479C37.5447 21.2521 37.1248 21.379 36.8708 21.5287C36.4412 21.7827 36.2263 22.1765 36.2263 22.7104C36.2263 23.1856 36.3565 23.5307 36.6169 23.7455C36.8839 23.9539 37.2061 24.058 37.5837 24.058C38.1827 24.058 38.7328 23.8823 39.2341 23.5307C39.7419 23.1791 40.0056 22.5379 40.0251 21.6069V20.5717ZM38.3357 19.2729C38.85 19.2078 39.2179 19.1264 39.4392 19.0287C39.8363 18.8595 40.0349 18.5958 40.0349 18.2377C40.0349 17.8015 39.8819 17.5021 39.5759 17.3393C39.2764 17.17 38.8337 17.0854 38.2478 17.0854C37.5903 17.0854 37.1248 17.2481 36.8513 17.5737C36.656 17.8146 36.5258 18.1401 36.4607 18.5502H33.7751C33.8337 17.6192 34.0942 16.8543 34.5564 16.2553C35.2921 15.3178 36.5551 14.8491 38.3455 14.8491C39.5108 14.8491 40.546 15.0802 41.4509 15.5424C42.3559 16.0047 42.8083 16.8771 42.8083 18.1596V23.0424C42.8083 23.381 42.8149 23.7911 42.8279 24.2729C42.8474 24.6375 42.9028 24.8849 42.9939 25.0151C43.085 25.1453 43.2218 25.2527 43.4041 25.3373V25.7475H40.3767C40.2921 25.5327 40.2335 25.3308 40.2009 25.142C40.1684 24.9532 40.1423 24.7384 40.1228 24.4975C39.7387 24.9142 39.296 25.269 38.7947 25.562C38.1957 25.907 37.5186 26.0795 36.7634 26.0795C35.7999 26.0795 35.0024 25.8061 34.3708 25.2592C33.7458 24.7058 33.4333 23.9246 33.4333 22.9155C33.4333 21.6069 33.9379 20.6596 34.947 20.0737C35.5004 19.7547 36.3142 19.5268 37.3884 19.3901L38.3357 19.2729ZM49.2146 14.8491C49.8591 14.8491 50.432 14.9923 50.9333 15.2787C51.4347 15.5587 51.8416 15.9493 52.1541 16.4506V11.3725H54.9763V25.7475H52.2712V24.2729C51.8741 24.9044 51.4216 25.3634 50.9138 25.6498C50.406 25.9363 49.7745 26.0795 49.0193 26.0795C47.7758 26.0795 46.7276 25.5782 45.8748 24.5756C45.0284 23.5665 44.6052 22.2742 44.6052 20.6987C44.6052 18.8823 45.0219 17.4532 45.8552 16.4116C46.6951 15.3699 47.8149 14.8491 49.2146 14.8491ZM49.8201 23.7358C50.6078 23.7358 51.2068 23.4428 51.6169 22.8569C52.0271 22.2709 52.2322 21.5125 52.2322 20.5815C52.2322 19.2794 51.9034 18.3484 51.2458 17.7885C50.8422 17.45 50.3735 17.2807 49.8396 17.2807C49.0258 17.2807 48.4268 17.5899 48.0427 18.2084C47.6651 18.8204 47.4763 19.5821 47.4763 20.4936C47.4763 21.4767 47.6684 22.2644 48.0525 22.8569C48.4431 23.4428 49.0323 23.7358 49.8201 23.7358ZM74.9763 14.8686C75.4451 14.8686 75.9073 14.9597 76.363 15.142C76.8188 15.3243 77.2322 15.6433 77.6033 16.0991C77.9028 16.4702 78.1046 16.9259 78.2087 17.4662C78.2738 17.8243 78.3064 18.3484 78.3064 19.0385L78.2869 25.7475H75.4353V18.9702C75.4353 18.5665 75.3702 18.2345 75.24 17.9741C74.9926 17.4793 74.5369 17.2319 73.8728 17.2319C73.1046 17.2319 72.574 17.5509 72.281 18.1889C72.1313 18.5274 72.0564 18.9343 72.0564 19.4096V25.7475H69.2537V19.4096C69.2537 18.7781 69.1886 18.3191 69.0583 18.0327C68.824 17.5183 68.365 17.2612 67.6814 17.2612C66.8871 17.2612 66.3533 17.5183 66.0798 18.0327C65.9301 18.3256 65.8552 18.7618 65.8552 19.3412V25.7475H63.033V15.1225H65.738V16.6752C66.0831 16.1218 66.4086 15.728 66.7146 15.4936C67.255 15.0769 67.9548 14.8686 68.8142 14.8686C69.628 14.8686 70.2856 15.0476 70.7869 15.4057C71.1905 15.7377 71.4965 16.1642 71.7048 16.685C72.0694 16.06 72.5219 15.601 73.0623 15.308C73.6352 15.0151 74.2732 14.8686 74.9763 14.8686ZM85.6501 23.7846C86.4639 23.7846 87.0889 23.4949 87.5251 22.9155C87.9613 22.336 88.1794 21.5125 88.1794 20.4448C88.1794 19.3771 87.9613 18.5567 87.5251 17.9838C87.0889 17.4044 86.4639 17.1147 85.6501 17.1147C84.8363 17.1147 84.2081 17.4044 83.7654 17.9838C83.3292 18.5567 83.1111 19.3771 83.1111 20.4448C83.1111 21.5125 83.3292 22.336 83.7654 22.9155C84.2081 23.4949 84.8363 23.7846 85.6501 23.7846ZM91.0994 20.4448C91.0994 22.0073 90.6501 23.3452 89.7517 24.4584C88.8533 25.5652 87.4893 26.1186 85.6599 26.1186C83.8305 26.1186 82.4666 25.5652 81.5681 24.4584C80.6697 23.3452 80.2205 22.0073 80.2205 20.4448C80.2205 18.9083 80.6697 17.5769 81.5681 16.4506C82.4666 15.3243 83.8305 14.7612 85.6599 14.7612C87.4893 14.7612 88.8533 15.3243 89.7517 16.4506C90.6501 17.5769 91.0994 18.9083 91.0994 20.4448ZM98.8826 14.8491C98.9347 14.8491 98.977 14.8523 99.0095 14.8588C99.0486 14.8588 99.13 14.8621 99.2537 14.8686V17.7202C99.0779 17.7006 98.9216 17.6876 98.7849 17.6811C98.6482 17.6746 98.5375 17.6713 98.4529 17.6713C97.3331 17.6713 96.5811 18.0359 96.197 18.7651C95.9822 19.1752 95.8748 19.8067 95.8748 20.6596V25.7475H93.072V15.103H95.7283V16.9584C96.158 16.2488 96.5323 15.7638 96.8513 15.5034C97.3722 15.0672 98.0492 14.8491 98.8826 14.8491ZM105.094 17.1147C104.449 17.1147 103.948 17.3165 103.59 17.7202C103.238 18.1238 103.017 18.6707 102.926 19.3608H107.252C107.206 18.6251 106.982 18.0685 106.578 17.6909C106.181 17.3067 105.686 17.1147 105.094 17.1147ZM105.094 14.8198C105.979 14.8198 106.776 14.9858 107.486 15.3178C108.196 15.6498 108.782 16.1739 109.244 16.8901C109.661 17.5216 109.931 18.254 110.054 19.0873C110.126 19.5756 110.155 20.2787 110.142 21.1967H102.857C102.896 22.2644 103.232 23.0131 103.863 23.4428C104.247 23.7097 104.709 23.8432 105.25 23.8432C105.823 23.8432 106.288 23.6804 106.646 23.3549C106.842 23.1791 107.014 22.935 107.164 22.6225H110.006C109.934 23.254 109.605 23.8953 109.019 24.5463C108.108 25.5815 106.832 26.0991 105.191 26.0991C103.837 26.0991 102.642 25.6629 101.607 24.7905C100.572 23.9181 100.054 22.4988 100.054 20.5327C100.054 18.6902 100.52 17.2774 101.451 16.2944C102.388 15.3113 103.603 14.8198 105.094 14.8198Z" fill="white"/>
</g>
<g clip-path="url(#clip2_5_75)">
<rect x="26.7473" y="24.4975" width="0.005" height="0.005" fill="white"/>
</g>
</g>
<defs>
<clipPath id="clip0_5_75">
<rect width="29.5" height="24.005" fill="white" transform="translate(11.9998 0.497498)"/>
</clipPath>
<clipPath id="clip1_5_75">
<rect width="29.5" height="13.5" fill="white" transform="translate(11.9998 5.7475)"/>
</clipPath>
<clipPath id="clip2_5_75">
<rect width="24.005" height="0.005" fill="white" transform="translate(14.7473 24.4975)"/>
</clipPath>
</defs>
</svg>
