<svg width="13" height="13" viewBox="0 0 13 13" fill="none" xmlns="http://www.w3.org/2000/svg">
<path d="M12.1302 11.0962L9.37365 8.33966C10.0373 7.45617 10.3956 6.38077 10.3944 5.27579C10.3944 2.45333 8.09807 0.157043 5.27561 0.157043C2.45315 0.157043 0.15686 2.45333 0.15686 5.27579C0.15686 8.09825 2.45315 10.3945 5.27561 10.3945C6.38059 10.3957 7.45598 10.0375 8.33947 9.37384L11.096 12.1304C11.2356 12.2551 11.4175 12.3217 11.6046 12.3165C11.7917 12.3112 11.9697 12.2346 12.102 12.1022C12.2344 11.9699 12.311 11.7919 12.3163 11.6048C12.3215 11.4177 12.2549 11.2357 12.1302 11.0962ZM1.61936 5.27579C1.61936 4.55265 1.83379 3.84576 2.23555 3.24449C2.6373 2.64322 3.20833 2.17459 3.87642 1.89786C4.54451 1.62113 5.27966 1.54872 5.98891 1.6898C6.69815 1.83087 7.34963 2.1791 7.86097 2.69043C8.3723 3.20177 8.72053 3.85325 8.8616 4.56249C9.00268 5.27174 8.93027 6.00688 8.65354 6.67498C8.37681 7.34307 7.90818 7.9141 7.30691 8.31585C6.70564 8.7176 5.99875 8.93204 5.27561 8.93204C4.30627 8.93088 3.37696 8.54529 2.69153 7.85987C2.00611 7.17444 1.62052 6.24513 1.61936 5.27579Z" fill="#2D3748"/>
</svg>
