<svg width="13" height="13" viewBox="0 0 13 13" fill="none" xmlns="http://www.w3.org/2000/svg">
<path d="M6.49991 4.62482C6.12907 4.62482 5.76656 4.73478 5.45822 4.94081C5.14987 5.14684 4.90955 5.43967 4.76764 5.78228C4.62572 6.1249 4.58859 6.5019 4.66094 6.86561C4.73328 7.22932 4.91186 7.56342 5.17408 7.82564C5.43631 8.08786 5.7704 8.26644 6.13411 8.33879C6.49783 8.41113 6.87483 8.374 7.21744 8.23209C7.56005 8.09017 7.85289 7.84985 8.05891 7.54151C8.26494 7.23317 8.37491 6.87066 8.37491 6.49981C8.37342 6.00299 8.1754 5.52694 7.82409 5.17563C7.47278 4.82432 6.99673 4.6263 6.49991 4.62482ZM10.548 6.49981C10.5471 6.67501 10.5342 6.84995 10.5096 7.02341L11.6508 7.91685C11.7005 7.95789 11.734 8.01526 11.7452 8.07872C11.7565 8.14218 11.7449 8.20759 11.7124 8.26325L10.6329 10.127C10.6001 10.1822 10.5488 10.224 10.4882 10.2451C10.4276 10.2663 10.3615 10.2654 10.3015 10.2425L8.95967 9.70349C8.68027 9.91864 8.37451 10.0972 8.04983 10.2348L7.84921 11.6593C7.83798 11.7232 7.80494 11.7811 7.75573 11.8232C7.70653 11.8654 7.64422 11.8891 7.57944 11.8904H5.42038C5.35678 11.8892 5.29548 11.8664 5.24649 11.8259C5.19749 11.7853 5.16369 11.7293 5.15061 11.6671L4.94999 10.2425C4.62441 10.1065 4.31843 9.92768 4.04014 9.71075L2.69835 10.2498C2.63837 10.2726 2.57226 10.2736 2.51165 10.2525C2.45103 10.2314 2.3998 10.1896 2.36694 10.1345L1.28741 8.27099C1.25492 8.21532 1.24328 8.14991 1.25457 8.08645C1.26586 8.023 1.29935 7.96562 1.34905 7.92458L2.49022 7.03114C2.46588 6.85506 2.45304 6.67757 2.45179 6.49981C2.45276 6.32462 2.4656 6.14968 2.49022 5.97622L1.34905 5.08278C1.29935 5.04174 1.26586 4.98437 1.25457 4.92091C1.24328 4.85745 1.25492 4.79204 1.28741 4.73638L2.36694 2.87263C2.39976 2.81746 2.45098 2.77562 2.5116 2.75449C2.57221 2.73335 2.63834 2.73427 2.69835 2.75708L4.04014 3.29614C4.31955 3.08099 4.62531 2.90243 4.94999 2.76482L5.15061 1.34029C5.16184 1.27648 5.19488 1.21855 5.24408 1.1764C5.29329 1.13425 5.3556 1.11049 5.42038 1.10919H7.57944C7.64304 1.11043 7.70434 1.13319 7.75333 1.17376C7.80233 1.21432 7.83612 1.2703 7.84921 1.33255L8.04983 2.75708C8.37582 2.89301 8.68219 3.07186 8.96084 3.28888L10.3015 2.74982C10.3614 2.72699 10.4276 2.72603 10.4882 2.74712C10.5488 2.76821 10.6 2.81 10.6329 2.86513L11.7124 4.72888C11.7449 4.78454 11.7565 4.84995 11.7452 4.91341C11.734 4.97687 11.7005 5.03424 11.6508 5.07528L10.5096 5.96872C10.5339 6.14473 10.5468 6.32214 10.548 6.49981Z" fill="#718096"/>
</svg>
