<svg width="21" height="20" viewBox="0 0 21 20" fill="none" xmlns="http://www.w3.org/2000/svg">
<g clip-path="url(#clip0_29_1192)">
<path d="M10.5004 6.66665C11.4171 6.66665 12.1671 5.91665 12.1671 4.99998C12.1671 4.08331 11.4171 3.33331 10.5004 3.33331C9.58374 3.33331 8.83374 4.08331 8.83374 4.99998C8.83374 5.91665 9.58374 6.66665 10.5004 6.66665ZM10.5004 8.33331C9.58374 8.33331 8.83374 9.08331 8.83374 9.99998C8.83374 10.9166 9.58374 11.6666 10.5004 11.6666C11.4171 11.6666 12.1671 10.9166 12.1671 9.99998C12.1671 9.08331 11.4171 8.33331 10.5004 8.33331ZM10.5004 13.3333C9.58374 13.3333 8.83374 14.0833 8.83374 15C8.83374 15.9166 9.58374 16.6666 10.5004 16.6666C11.4171 16.6666 12.1671 15.9166 12.1671 15C12.1671 14.0833 11.4171 13.3333 10.5004 13.3333Z" fill="#A0AEC0"/>
</g>
<defs>
<clipPath id="clip0_29_1192">
<rect width="20" height="20" fill="white" transform="translate(0.500366 -1.52588e-05)"/>
</clipPath>
</defs>
</svg>
