<svg width="13" height="12" viewBox="0 0 13 12" fill="none" xmlns="http://www.w3.org/2000/svg">
<g clip-path="url(#clip0_29_504)">
<path d="M8.29603 1.51317C7.83993 1.02074 7.2029 0.749573 6.49978 0.749573C5.7929 0.749573 5.15376 1.0191 4.69978 1.50848C4.24087 2.00324 4.01728 2.67567 4.06978 3.40176C4.17384 4.83426 5.26392 5.99957 6.49978 5.99957C7.73564 5.99957 8.82384 4.83449 8.92954 3.40223C8.98275 2.6827 8.75775 2.01168 8.29603 1.51317Z" fill="#718096"/>
<path d="M10.6249 11.249H2.37489C2.2669 11.2504 2.15996 11.2277 2.06185 11.1826C1.96374 11.1375 1.87691 11.0711 1.8077 10.9882C1.65536 10.8061 1.59395 10.5574 1.63942 10.3059C1.83723 9.20855 2.45458 8.28676 3.42489 7.63965C4.28692 7.0652 5.37887 6.74902 6.49989 6.74902C7.6209 6.74902 8.71285 7.06543 9.57488 7.63965C10.5452 8.28652 11.1625 9.20832 11.3604 10.3057C11.4058 10.5571 11.3444 10.8058 11.1921 10.9879C11.1229 11.0709 11.0361 11.1373 10.938 11.1825C10.8398 11.2277 10.7329 11.2504 10.6249 11.249Z" fill="#718096"/>
</g>
<defs>
<clipPath id="clip0_29_504">
<rect width="12" height="12" fill="white" transform="translate(0.499878 -0.000244141)"/>
</clipPath>
</defs>
</svg>
