<svg width="24" height="24" viewBox="0 0 24 24" fill="none" xmlns="http://www.w3.org/2000/svg">
<path d="M22.1799 10.3817L22.0739 9.93222H12.3033V14.0675H18.1411C17.535 16.9457 14.7225 18.4607 12.4252 18.4607C10.7536 18.4607 8.99158 17.7575 7.82533 16.6274C7.21002 16.0216 6.72023 15.3004 6.38401 14.505C6.0478 13.7097 5.87175 12.8558 5.86596 11.9924C5.86596 10.2505 6.64877 8.50816 7.78783 7.36206C8.92689 6.21597 10.6472 5.57472 12.3577 5.57472C14.3166 5.57472 15.7205 6.61488 16.2455 7.08925L19.1841 4.16613C18.322 3.40863 15.9539 1.49988 12.263 1.49988C9.41533 1.49988 6.68486 2.59066 4.68892 4.58003C2.71924 6.53894 1.69971 9.37159 1.69971 11.9999C1.69971 14.6282 2.66439 17.3192 4.57314 19.2936C6.61267 21.3992 9.50111 22.4999 12.4753 22.4999C15.1814 22.4999 17.7464 21.4396 19.5745 19.5158C21.3717 17.6221 22.3013 15.0017 22.3013 12.2549C22.3013 11.0985 22.185 10.4117 22.1799 10.3817Z" fill="#2D3748"/>
</svg>
